<svg width="52" height="52" viewBox="0 0 52 52" fill="none" xmlns="http://www.w3.org/2000/svg">
<path d="M26 52C40.3161 52 52 40.3153 52 26C52 11.6837 40.3153 0 26 0C11.6839 0 0 11.6847 0 26C0 40.3162 11.6847 52 26 52ZM33.7134 47.6183C35.1865 45.7358 36.3157 43.4905 37.1638 41.2334H43.1526C40.6149 44.0883 37.3783 46.3066 33.7134 47.6183ZM45.4414 38.1875H38.1488C39.0478 34.9184 39.5752 31.2938 39.6874 27.5234H48.9013C48.6446 31.4222 47.4104 35.0578 45.4414 38.1875ZM45.4414 13.8125C47.4104 16.9421 48.6446 20.5778 48.9013 24.4766H39.6874C39.5752 20.7062 39.0478 17.0816 38.1488 13.8125H45.4414ZM43.1525 10.7656H37.1637C36.3159 8.51043 35.1868 6.26478 33.7133 4.38171C37.3784 5.69339 40.6149 7.91172 43.1525 10.7656ZM27.5234 3.30748C30.513 4.32077 32.6577 7.87627 33.8844 10.7656H27.5234V3.30748ZM27.5234 13.8125H34.9809C35.9496 17.0196 36.5194 20.6581 36.6394 24.4766H27.5234V13.8125ZM27.5234 27.5224H36.6394C36.5194 31.3419 35.9496 34.9804 34.9809 38.1875H27.5234V27.5224ZM27.5234 41.2334H33.8844C32.6557 44.1286 30.5106 47.6801 27.5234 48.6925V41.2334ZM8.84752 41.2344H14.8363C15.6841 43.4896 16.8132 45.7352 18.2867 47.6183C14.6216 46.3067 11.3851 44.0883 8.84752 41.2344ZM24.4766 48.6925C21.4895 47.6801 19.3445 44.129 18.1156 41.2344H24.4766V48.6925ZM24.4766 38.1875H17.0191C16.0504 34.9804 15.4806 31.3419 15.3606 27.5234H24.4766V38.1875ZM24.4766 24.4766H15.3606C15.4806 20.6581 16.0504 17.0196 17.0191 13.8125H24.4766V24.4766ZM24.4766 3.30748V10.7656H18.1156C19.3444 7.8713 21.4893 4.31996 24.4766 3.30748ZM18.2866 4.38171C16.8135 6.26417 15.6844 8.50941 14.8361 10.7656H8.84752C11.3851 7.91172 14.6216 5.69329 18.2866 4.38171ZM6.5586 13.8115H13.8512C12.9522 17.0816 12.4248 20.7062 12.3126 24.4766H3.09867C3.35542 20.5778 4.58961 16.9421 6.5586 13.8115ZM3.09867 27.5234H12.3126C12.4248 31.2938 12.9522 34.9184 13.8512 38.1875H6.5586C4.58961 35.0578 3.35542 31.4222 3.09867 27.5234Z" fill="#FAFAFA"/>
</svg>
